PathFileType	4	(X/Y/Z)	/Users/niels/Desktop/University/Third Semester/Perception and Action/Exam/Gymnastics Motion Tracking/Code for Gym Tracking/Analyzed Data/Webcam_Backflip/id2001_2_baseline_Sports2D/id2001_2_baseline_Sports2D_px_person00.trc
DataRate	CameraRate	NumFrames	NumMarkers	Units	OrigDataRate	OrigDataStartFrame	OrigNumFrames
29.888475836431226	29.888475836431226	10	22	m	29.888475836431226	0	269
Frame#	Time	Hip			RHip			RKnee			RAnkle			RBigToe			RSmallToe			RHeel			LHip			LKnee			LAnkle			LBigToe			LSmallToe			LHeel			Neck			Head			Nose			RShoulder			RElbow			RWrist			LShoulder			LElbow			LWrist		
		X1	Y1	Z1	X2	Y2	Z2	X3	Y3	Z3	X4	Y4	Z4	X5	Y5	Z5	X6	Y6	Z6	X7	Y7	Z7	X8	Y8	Z8	X9	Y9	Z9	X10	Y10	Z10	X11	Y11	Z11	X12	Y12	Z12	X13	Y13	Z13	X14	Y14	Z14	X15	Y15	Z15	X16	Y16	Z16	X17	Y17	Z17	X18	Y18	Z18	X19	Y19	Z19	X20	Y20	Z20	X21	Y21	Z21	X22	Y22	Z22
0	0.0	0.7468912574308031	-0.6999963185299392	0.0	0.83787832281167	-0.7285953082840653	0.0	1.0121018954042753	-1.064069133297068	0.0	1.3367919896936984	-1.0834355450060504	0.0	1.8403715791700757	-1.0760458982420475	0.0	1.5710234378694403	-1.1015957029351757	0.0	1.3287441413702954	-1.1063701169208489	0.0	0.655904830857618	-0.7311662032909164	0.0	0.6767920137267676	-1.0718648496644574	0.0	1.3353349628918731	-1.06877832016953	0.0	1.416982421875	-1.0925839843750003	0.0	1.4258959960937496	-1.08961279296875	0.0	1.2331186523437507	-1.08447509765625	0.0	0.8196681732974763	-0.1384782554989373	0.0	1.0667164850074222	-0.04479881807116594	0.0	1.0432889130148069	-0.0889980996673393	0.0	0.8820835100541131	-0.05783103550838976	0.0	0.8379965162955013	-0.4269670031929677	0.0	0.905643025594381	-0.7961218099562586	0.0	0.6923744797935175	-0.16175183803664245	0.0	0.684721061081517	-0.4841976874487117	0.0	0.6971267978989845	-0.8131808488738371	0.0
1	0.03345771144278607	0.7612922713420607	-0.7154435581794023	0.0	0.8480704194819567	-0.7411671563353648	0.0	1.0105056020667331	-1.0594210015541539	0.0	1.3367919863391882	-1.0834355446686914	0.0	1.8403715826227807	-1.0760458982922083	0.0	1.5710234377905716	-1.101595703058408	0.0	1.3287441395798723	-1.1063701168483695	0.0	0.6673131424678332	-0.7469680573409524	0.0	0.6794101346003212	-1.0690943127319343	0.0	1.3353349623317385	-1.0687783201998515	0.0	1.416982421875	-1.0925839843750003	0.0	1.4258959960937496	-1.08961279296875	0.0	1.2331186523437507	-1.08447509765625	0.0	0.8426588309996453	-0.12304481125581698	0.0	1.079429693078872	-0.03505382260419267	0.0	1.0544849261748392	-0.09446979839626637	0.0	0.8989393910467626	-0.0724694352526631	0.0	0.8604394341656334	-0.44287030752197837	0.0	0.9355649832131143	-0.8210167188859044	0.0	0.7030523172209043	-0.1601917883156986	0.0	0.6949434990726284	-0.49022486642460844	0.0	0.6933517536179836	-0.8067513651018579	0.0
2	0.06691542288557215	0.7753367380743805	-0.7296516368960211	0.0	0.8583111994986817	-0.7523467039554342	0.0	1.0084004362858947	-1.055564368321995	0.0	1.336791982035638	-1.0834355452935664	0.0	1.8403715906002154	-1.0760458985086887	0.0	1.5710234374095868	-1.101595703400462	0.0	1.3287441359257544	-1.1063701168944582	0.0	0.6786954505776773	-0.7615171029129608	0.0	0.6829671321181047	-1.066841185944542	0.0	1.3353349600635072	-1.0687783203469354	0.0	1.416982421875	-1.0925839843750003	0.0	1.4258959960937496	-1.08961279296875	0.0	1.2331186523437507	-1.08447509765625	0.0	0.8647770230289656	-0.11083082672775064	0.0	1.0920838986821972	-0.027043124300873092	0.0	1.0667397510585221	-0.0989232757021274	0.0	0.9159416655224093	-0.08719119833881007	0.0	0.8828564914625332	-0.45807420114211456	0.0	0.9666162466743381	-0.8427165282973639	0.0	0.7142388396010552	-0.16042828134987638	0.0	0.7030894582630642	-0.49718013134906297	0.0	0.689409437128015	-0.8002879927256542	0.0
3	0.10037313432835822	0.7890213342300687	-0.7413824770850542	0.0	0.869014588884817	-0.7608994863434462	0.0	1.0054594753604253	-1.0532013914850755	0.0	1.3367919782460118	-1.0834355478409863	0.0	1.8403716043243563	-1.0760458989865749	0.0	1.5710234365457596	-1.1015957040490267	0.0	1.3287441301453446	-1.1063701171976492	0.0	0.6901818982602331	-0.7736057518277775	0.0	0.6881099645977922	-1.0654923094972077	0.0	1.3353349551400533	-1.068778320680734	0.0	1.416982421875	-1.0925839843750003	0.0	1.4258959960937496	-1.08961279296875	0.0	1.2331186523437507	-1.08447509765625	0.0	0.8855891285166867	-0.10373868462795087	0.0	1.1049035403870284	-0.021476561956093744	0.0	1.080706677412966	-0.10170120933480413	0.0	0.9332869166645147	-0.10187361677981327	0.0	0.905342988695844	-0.4719041254287827	0.0	0.9996505333982431	-0.8587738093408535	0.0	0.726216038637698	-0.1636743178984438	0.0	0.7077617991253078	-0.5049039424636798	0.0	0.6852872075338999	-0.7937192678373716	0.0
4	0.1338308457711443	0.8027753590443533	-0.7497110666502371	0.0	0.8808162537697982	-0.7660981819878152	0.0	1.0026099569874514	-1.0527365522428562	0.0	1.3367919781783801	-1.083435553380636	0.0	1.8403716229991647	-1.0760458997853461	0.0	1.571023435076887	-1.101595705016181	0.0	1.3287441229923256	-1.1063701179254872	0.0	0.7021202420472203	-0.7822472584630639	0.0	0.6952772528515054	-1.0652270988300263	0.0	1.3353349470025355	-1.0687783212486612	0.0	1.416982421875	-1.0925839843750003	0.0	1.4258959960937496	-1.08961279296875	0.0	1.2331186523437505	-1.08447509765625	0.0	0.9050160388262531	-0.10192497416714624	0.0	1.1181852459158659	-0.018179950315834945	0.0	1.096346037108907	-0.10266981094973571	0.0	0.9509809817895101	-0.11612029291523343	0.0	0.9280187505892299	-0.4839257980147753	0.0	1.0349290723895337	-0.8682826594274834	0.0	0.7389132328431673	-0.17034706369556063	0.0	0.7086377228067012	-0.512149084857743	0.0	0.6811444999224816	-0.7869550026335671	0.0
5	0.16728855721393038	0.8172825066738205	-0.7542815927777992	0.0	0.8944055561832027	-0.7678892854594093	0.0	1.0030403229628997	-1.0541141595419072	0.0	1.336791987171379	-1.0834355625479735	0.0	1.840371641460336	-1.0760459008393488	0.0	1.5710234331024142	-1.101595706122945	0.0	1.3287441171896557	-1.1063701192062811	0.0	0.7151059758220019	-0.7868411728319926	0.0	0.705039144041984	-1.065976761972454	0.0	1.335334936397997	-1.0687783220125424	0.0	1.416982421875	-1.0925839843750003	0.0	1.4258959960937496	-1.08961279296875	0.0	1.2331186523437503	-1.08447509765625	0.0	0.9231030212891511	-0.10430772787670779	0.0	1.132011396575406	-0.01674548612324691	0.0	1.1129270094939998	-0.10212760122471704	0.0	0.9687766138453668	-0.1293829769534629	0.0	0.9511688129695057	-0.49411158935170996	0.0	1.0723499604037667	-0.8715520335277955	0.0	0.7520254515634135	-0.18012312489581042	0.0	0.7066689447172676	-0.5174334943094071	0.0	0.677442628266754	-0.7799023115544482	0.0
6	0.20074626865671644	0.8329955832636192	-0.7553320058735029	0.0	0.9102801336339079	-0.7667234805203115	0.0	1.0100734898479686	-1.0568042287465602	0.0	1.3367920122353663	-1.0834355745111988	0.0	1.8403716473371308	-1.0760459018227102	0.0	1.571023431193722	-1.1015957068444908	0.0	1.3287441184509892	-1.1063701209894243	0.0	0.7296767601388343	-0.7873284403951345	0.0	0.7178926747824004	-1.0673769859541802	0.0	1.335334926748657	-1.0687783227518173	0.0	1.416982421875	-1.0925839843750003	0.0	1.4258959960937496	-1.08961279296875	0.0	1.2331186523437503	-1.0844750976562503	0.0	0.9398833022551906	-0.10939134120001844	0.0	1.146142924905686	-0.016834169388352294	0.0	1.1292963414718036	-0.1005323658576917	0.0	0.986357269128275	-0.14116595870354182	0.0	0.9752513271169172	-0.5027333805178418	0.0	1.111703953639394	-0.8696322717538457	0.0	0.7652736067777555	-0.19192929175505027	0.0	0.7040607595024466	-0.5198115617127698	0.0	0.6750515796050034	-0.7725163616282462	0.0
7	0.2342039800995025	0.8496671138584165	-0.7534805755560422	0.0	0.9283073134311124	-0.7631535938428409	0.0	1.023543277143884	-1.059964555846156	0.0	1.3367920598481904	-1.0834355854278128	0.0	1.840371618887364	-1.076045901992187	0.0	1.5710234306919664	-1.1015957061612298	0.0	1.328744136000217	-1.1063701228239717	0.0	0.7458058632880352	-0.7840806155659684	0.0	0.7340136158219825	-1.0687724023794727	0.0	1.3353349257203935	-1.0687783229482695	0.0	1.416982421875	-1.0925839843750003	0.0	1.4258959960937496	-1.08961279296875	0.0	1.2331186523437505	-1.0844750976562505	0.0	0.9553837298652655	-0.11589709367621352	0.0	1.160022704537213	-0.0180764986775015	0.0	1.1442515382266383	-0.09821804477855768	0.0	1.0034746279825497	-0.1511913058637353	0.0	1.0007405777331693	-0.5099424993017342	0.0	1.1527574349730976	-0.8638683215906534	0.0	0.7787129993657701	-0.2042780977593832	0.0	0.7037390322028536	-0.5191922771874292	0.0	0.6752430228901813	-0.7648977534362273	0.0
8	0.2676616915422886	0.8663568157921738	-0.7493580884907153	0.0	0.9474710644252181	-0.7575786593495509	0.0	1.0399728477530183	-1.0628231293138242	0.0	1.3367921309635704	-1.083435586673573	0.0	1.840371525878219	-1.0760459000792761	0.0	1.5710234339264395	-1.1015957025214673	0.0	1.3287441815356313	-1.1063701235839218	0.0	0.7627398945086579	-0.7775703423023512	0.0	0.7534057916008142	-1.0694978980483978	0.0	1.3353349462485475	-1.0687783217013413	0.0	1.416982421875	-1.0925839843750003	0.0	1.4258959960937496	-1.08961279296875	0.0	1.2331186523437512	-1.084475097656251	0.0	0.9695998550911203	-0.1230551671864046	0.0	1.1729424042341046	-0.019899121963236628	0.0	1.156884410409535	-0.09534847557141903	0.0	1.0198678781298764	-0.15942540178967043	0.0	1.0279228209590996	-0.5153743151566522	0.0	1.1951194313411098	-0.8548870169316721	0.0	0.7927701584407556	-0.21585819633963102	0.0	0.7082930458477988	-0.516293687679468	0.0	0.6794658163217191	-0.7574001602575219	0.0
9	0.30111940298507467	0.8819957516744663	-0.7434683111954398	0.0	0.9662386385601919	-0.7504610729578222	0.0	1.0557737607476352	-1.0650271396075655	0.0	1.3367922125297969	-1.0834355636776964	0.0	1.8403713372697617	-1.0760458943721838	0.0	1.5710234440976578	-1.101595694098737	0.0	1.32874426510329	-1.106370121243962	0.0	0.7794833795487359	-0.768362802721626	0.0	0.775998944104948	-1.0692755996903662	0.0	1.335335005578607	-1.0687783177729004	0.0	1.416982421875	-1.0925839843750003	0.0	1.4258959960937496	-1.08961279296875	0.0	1.2331186523437523	-1.0844750976562514	0.0	0.9824569585246558	-0.1305547862685903	0.0	1.1842371915919698	-0.0215999744230541	0.0	1.1668569964729065	-0.09210242226636868	0.0	1.0351539810418515	-0.16601709288452904	0.0	1.0567501827988004	-0.5182526928063668	0.0	1.2381391390578245	-0.8423366710868058	0.0	0.8079941159469225	-0.22562789518475235	0.0	0.7194713825545437	-0.5122328250839386	0.0	0.6890066816865634	-0.7506135434924665	0.0
